# xmcd CD database file generated by Grip 2.96
# 
# Track frame offsets:
#       160
#       20242
#       41125
#       69480
#       81227
#       97950
#       124282
#       134265
#       162737
# 
# Disc length: 2740 seconds
# 
# Revision: 0
# Processed by: cddbd v1.4PL0 Copyright (c) Steve Scherf et al.
# Submitted via: Grip 2.96
# 
DISCID=810ab209
DTITLE=Son House - Death Letter
DYEAR=1900
DGENRE=
TTITLE0=Death letter
TTITLE1=Pearline
TTITLE2=Louise McGhee
TTITLE3=John the revelator
TTITLE4=Empire state express
TTITLE5=Preachin' blues
TTITLE6=Grinning in your face
TTITLE7=Sundown
TTITLE8=Levee camp moan
EXTD=
EXTT0=
EXTT1=
EXTT2=
EXTT3=
EXTT4=
EXTT5=
EXTT6=
EXTT7=
EXTT8=
PLAYORDER=
